<svg xmlns="http://www.w3.org/2000/svg" viewBox="0 0 72 72"><defs><style>.cls-1{isolation:isolate;}.cls-2{fill:#b3dee5;}.cls-3{fill:#fae6b1;}.cls-4{fill:#1f212b;}</style></defs><g id="Layer_2" data-name="Layer 2"><g id="Layer_1-2" data-name="Layer 1"><g class="cls-1"><circle class="cls-2" cx="36" cy="36" r="35" transform="translate(-10.11 57.59) rotate(-70.1)"/><path class="cls-3" d="M50,33.5H38.5V21a2.5,2.5,0,0,0-5,0V33.5H22a2.5,2.5,0,0,0,0,5H33.5V51a2.5,2.5,0,0,0,5,0V38.5H50a2.5,2.5,0,0,0,0-5Z"/><path class="cls-4" d="M36,70A34,34,0,1,1,70,36,34,34,0,0,1,36,70ZM36,0A36,36,0,1,0,72,36,36,36,0,0,0,36,0Z"/><path class="cls-4" d="M52,36a2,2,0,0,1-2,2H38.5a.5.5,0,0,0-.5.5V51a2,2,0,0,1-4,0V38.5a.5.5,0,0,0-.5-.5H22a2,2,0,0,1,0-4H33.5a.5.5,0,0,0,.5-.5V21a2,2,0,0,1,4,0V33.5a.5.5,0,0,0,.5.5H50A2,2,0,0,1,52,36ZM39,33V21a3,3,0,0,0-6,0V33H22a3,3,0,0,0,0,6H33V51a3,3,0,0,0,6,0V39H50a3,3,0,0,0,0-6Z"/></g></g></g></svg>