<svg xmlns="http://www.w3.org/2000/svg" width="41" height="41" fill="none" viewBox="0 0 41 41">
  <path fill="#31525B" d="M35.551 25.949c3.01-8.313-1.29-17.491-9.603-20.5-8.312-3.01-17.49 1.29-20.5 9.603-3.009 8.312 1.29 17.49 9.604 20.5 8.312 3.009 17.49-1.29 20.5-9.603Z"/>
  <path fill="#FAE6B1" d="M26.906 19.36h-5.26v-5.717a1.144 1.144 0 0 0-2.287 0v5.717H14.1a1.144 1.144 0 0 0 0 2.287h5.26v5.716a1.143 1.143 0 0 0 2.287 0v-5.716h5.26a1.143 1.143 0 0 0 0-2.287Z"/>
  <path fill="#1F212B" d="M20.503 36.053a15.55 15.55 0 1 1 0-31.1 15.55 15.55 0 0 1 0 31.1Zm0-32.015a16.465 16.465 0 1 0 0 32.93 16.465 16.465 0 0 0 0-32.93Z"/>
  <path fill="#1F212B" d="M27.82 20.503a.915.915 0 0 1-.914.915h-5.26a.229.229 0 0 0-.229.228v5.717a.915.915 0 0 1-1.829 0v-5.717a.229.229 0 0 0-.229-.228H14.1a.915.915 0 0 1 0-1.83h5.26a.229.229 0 0 0 .23-.228v-5.717a.915.915 0 0 1 1.829 0v5.717a.229.229 0 0 0 .228.228h5.26a.914.914 0 0 1 .914.915Zm-5.945-1.372v-5.488a1.372 1.372 0 0 0-2.744 0v5.488H14.1a1.372 1.372 0 0 0 0 2.744h5.03v5.488a1.372 1.372 0 1 0 2.745 0v-5.488h5.03a1.372 1.372 0 1 0 0-2.744h-5.03Z"/>
</svg>
