<svg xmlns="http://www.w3.org/2000/svg" viewBox="0 0 40 47.71"><defs><style>.cls-1{isolation:isolate;}.cls-2{fill:#31525b;}.cls-3{fill:#b3dee5;}.cls-4{fill:#ffa101;}</style></defs><g id="Layer_2" data-name="Layer 2"><g id="Layer_1-2" data-name="Layer 1"><g class="cls-1"><path class="cls-2" d="M33.33,19.25H22.22V14.81H17.78v4.44H6.67A6.67,6.67,0,0,0,0,25.92v3.89l1.1,1.26a4.6,4.6,0,0,0,6.69,0L12.22,26l4.44,5.07a4.6,4.6,0,0,0,6.69,0L27.78,26l4.44,5.07a4.6,4.6,0,0,0,6.69,0L40,29.81V25.92A6.67,6.67,0,0,0,33.33,19.25Z"/><path class="cls-3" d="M35.56,36.6a8.91,8.91,0,0,1-6.69-3l-1.09-1.25-1.09,1.25a8.9,8.9,0,0,1-13.38,0l-1.09-1.25-1.09,1.25a8.91,8.91,0,0,1-6.69,3A8.75,8.75,0,0,1,0,35.35V47.71H40V35.35A8.85,8.85,0,0,1,35.56,36.6Z"/><path class="cls-4" d="M20,13.33a4.44,4.44,0,0,0,4.44-4.44C24.44,6.43,20,0,20,0s-4.44,6.43-4.44,8.89A4.44,4.44,0,0,0,20,13.33Z"/></g></g></g></svg>