<svg xmlns="http://www.w3.org/2000/svg" viewBox="0 0 102.26 102.27"><defs><style>.cls-1{isolation:isolate;}.cls-2{opacity:0.01;}.cls-3,.cls-4{fill:none;stroke:#000;}.cls-3{stroke-linejoin:round;stroke-width:2.19px;}.cls-4{stroke-miterlimit:10;stroke-width:2px;}</style></defs><g id="Layer_2" data-name="Layer 2"><g id="Layer_1-2" data-name="Layer 1"><g class="cls-1"><rect class="cls-2" x="1.09" y="1.09" width="100.07" height="100.08" rx="8"/><rect class="cls-3" x="1.09" y="1.09" width="100.07" height="100.08" rx="8"/><path d="M39.08,46.57l9,2.26L43,54.57H35.18L33,52.08l-2.89-3.25ZM21.67,23.76H27V49a1.33,1.33,0,0,0,.34.88l6.19,6.94v0l4.56,5.06.17.17a1.35,1.35,0,0,0,.8.29,1.32,1.32,0,0,0,.79-.29c.07-.06.15-.11.21-.17l4.52-5.06,0,0,6.16-6.94a1.37,1.37,0,0,0,.33-.88V23.76H80.59A5.36,5.36,0,0,1,86,29.12V72a5.36,5.36,0,0,1-5.36,5.35H46.4a6.74,6.74,0,0,0-4.31,1.55L29.7,89.22V80A2.69,2.69,0,0,0,27,77.33H21.67A5.35,5.35,0,0,1,16.31,72V29.12A5.36,5.36,0,0,1,21.67,23.76ZM31,13.05H47.11a1.34,1.34,0,0,1,1.34,1.34V46.15l-8-2V27.78a1.34,1.34,0,0,0-2.68,0V44.14l-8,2V14.39A1.34,1.34,0,0,1,31,13.05Zm0-2.68a4,4,0,0,0-4,4v6.69H21.67a8,8,0,0,0-8,8V72a8,8,0,0,0,8,8H27v9.21a2.7,2.7,0,0,0,1.55,2.43,2.92,2.92,0,0,0,1.13.25,2.65,2.65,0,0,0,1.72-.63L43.81,81a4.1,4.1,0,0,1,2.59-1H80.59a8,8,0,0,0,8-8V29.12a8,8,0,0,0-8-8H51.13V14.39a4,4,0,0,0-4-4Z"/><line class="cls-4" x1="49.77" y1="34.36" x2="79.93" y2="34.34"/><line class="cls-4" x1="49.77" y1="43.77" x2="79.93" y2="43.76"/><line class="cls-4" x1="20.99" y1="34.36" x2="27.73" y2="34.37"/><line class="cls-4" x1="20.94" y1="43.79" x2="27.69" y2="43.8"/><line class="cls-4" x1="46.15" y1="53.13" x2="79.92" y2="53.14"/><line class="cls-4" x1="20.98" y1="53.11" x2="31.71" y2="53.15"/><line class="cls-4" x1="20.98" y1="62.52" x2="37.04" y2="62.53"/></g></g></g></svg>