<svg xmlns="http://www.w3.org/2000/svg" viewBox="0 0 102.26 102.27"><defs><style>.cls-1{isolation:isolate;}.cls-2{fill:#ffa101;}.cls-10,.cls-3,.cls-5,.cls-7,.cls-9{fill:none;}.cls-10,.cls-3{stroke:#000;}.cls-3,.cls-5{stroke-linejoin:round;stroke-width:2.19px;}.cls-4{fill:#fff;}.cls-5{stroke:#fff;}.cls-6{fill:#31525b;}.cls-7{stroke:#31525b;stroke-linecap:round;}.cls-10,.cls-7,.cls-9{stroke-miterlimit:10;stroke-width:2px;}.cls-8{fill:#b3dee5;}.cls-9{stroke:#b3dee5;}</style></defs><g id="Layer_2" data-name="Layer 2"><g id="Layer_1-2" data-name="Layer 1"><g class="cls-1"><rect class="cls-2" x="1.09" y="1.09" width="100.07" height="100.08" rx="8"/><rect class="cls-3" x="1.09" y="1.09" width="100.07" height="100.08" rx="8"/><polygon class="cls-4" points="26.23 22.75 19.15 23.83 16.14 26.95 16.08 73.21 17.88 75.92 21.01 77.72 26.96 77.72 29.54 79.34 30.14 82.95 30.02 86.91 30.08 88.59 38.01 82.77 41.56 79.1 44.56 77.9 49.37 77.48 56.88 77.66 68.29 77 77.54 77.36 83.31 76.7 86.44 73.45 86.02 69.13 86.14 42.57 86.08 33.38 85.23 27.19 82.77 24.43 79.29 24.13 67.99 23.95 26.23 22.75"/><polygon class="cls-5" points="26.23 22.75 19.15 23.83 16.14 26.95 16.08 73.21 17.88 75.92 21.01 77.72 26.96 77.72 29.54 79.34 30.14 82.95 30.02 86.91 30.08 88.59 38.01 82.77 41.56 79.1 44.56 77.9 49.37 77.48 56.88 77.66 68.29 77 77.54 77.36 83.31 76.7 86.44 73.45 86.02 69.13 86.14 42.57 86.08 33.38 85.23 27.19 82.77 24.43 79.29 24.13 67.99 23.95 26.23 22.75"/><polygon class="cls-6" points="30.02 13.35 48.16 13.14 49.38 46.05 38.95 43.69 28.78 46.05 30.02 13.35"/><polygon class="cls-7" points="30.02 13.35 48.16 13.14 49.38 46.05 38.95 43.69 28.78 46.05 30.02 13.35"/><polygon class="cls-8" points="29.74 48.58 38.98 46.22 48.03 48.89 42.38 55.54 35.38 55.03 29.74 48.58"/><polygon class="cls-9" points="29.74 48.58 38.98 46.22 48.03 48.89 42.38 55.54 35.38 55.03 29.74 48.58"/><path d="M39.08,46.57l9,2.26L43,54.57H35.18L33,52.08l-2.89-3.25ZM21.67,23.76H27V49a1.33,1.33,0,0,0,.34.88l6.19,6.94v0l4.56,5.06.17.17a1.35,1.35,0,0,0,.8.29,1.32,1.32,0,0,0,.79-.29c.07-.06.15-.11.21-.17l4.52-5.06,0,0,6.16-6.94a1.37,1.37,0,0,0,.33-.88V23.76H80.59A5.36,5.36,0,0,1,86,29.12V72a5.36,5.36,0,0,1-5.36,5.35H46.4a6.74,6.74,0,0,0-4.31,1.55L29.7,89.22V80A2.69,2.69,0,0,0,27,77.33H21.67A5.35,5.35,0,0,1,16.31,72V29.12A5.36,5.36,0,0,1,21.67,23.76ZM31,13.05H47.11a1.34,1.34,0,0,1,1.34,1.34V46.15l-8-2V27.78a1.34,1.34,0,0,0-2.68,0V44.14l-8,2V14.39A1.34,1.34,0,0,1,31,13.05Zm0-2.68a4,4,0,0,0-4,4v6.69H21.67a8,8,0,0,0-8,8V72a8,8,0,0,0,8,8H27v9.21a2.7,2.7,0,0,0,1.55,2.43,2.92,2.92,0,0,0,1.13.25,2.65,2.65,0,0,0,1.72-.63L43.81,81a4.1,4.1,0,0,1,2.59-1H80.59a8,8,0,0,0,8-8V29.12a8,8,0,0,0-8-8H51.13V14.39a4,4,0,0,0-4-4Z"/><line x1="49.77" y1="34.36" x2="79.93" y2="34.34"/><line class="cls-10" x1="49.77" y1="34.36" x2="79.93" y2="34.34"/><line x1="49.77" y1="43.77" x2="79.93" y2="43.76"/><line class="cls-10" x1="49.77" y1="43.77" x2="79.93" y2="43.76"/><line x1="20.99" y1="34.36" x2="27.73" y2="34.37"/><line class="cls-10" x1="20.99" y1="34.36" x2="27.73" y2="34.37"/><line x1="20.94" y1="43.79" x2="27.69" y2="43.8"/><line class="cls-10" x1="20.94" y1="43.79" x2="27.69" y2="43.8"/><line x1="46.15" y1="53.13" x2="79.92" y2="53.14"/><line class="cls-10" x1="46.15" y1="53.13" x2="79.92" y2="53.14"/><line x1="20.98" y1="53.11" x2="31.71" y2="53.15"/><line class="cls-10" x1="20.98" y1="53.11" x2="31.71" y2="53.15"/><line x1="20.98" y1="62.52" x2="37.04" y2="62.53"/><line class="cls-10" x1="20.98" y1="62.52" x2="37.04" y2="62.53"/></g></g></g></svg>