<svg xmlns="http://www.w3.org/2000/svg" viewBox="0 0 54.93 54.94"><defs><style>.cls-1{isolation:isolate;}.cls-2{fill:#b3dee5;}.cls-3{fill:#31525b;}.cls-4{fill:none;stroke:#cf1111;stroke-miterlimit:10;stroke-width:9.88px;opacity:0.01;}</style></defs><g id="Layer_2" data-name="Layer 2"><g id="Layer_1-2" data-name="Layer 1"><g class="cls-1"><path class="cls-2" d="M44.44,4.94H8.33A5.57,5.57,0,0,0,2.78,10.5V44.85a7.31,7.31,0,0,0,7.31,7.31h32.6A7.31,7.31,0,0,0,50,44.85V10.5a5.56,5.56,0,0,0-5.56-5.56Z"/><path class="cls-3" d="M44.35,10.13l.09,39.25H5.56V10.5l39.18-.14-.47-5.42H5.56A5.57,5.57,0,0,0,0,10.5V49.38a5.57,5.57,0,0,0,5.56,5.56H44.44A5.57,5.57,0,0,0,50,49.38V10.31Z"/><path class="cls-3" d="M50,10.32a6,6,0,0,0-.11-.9c0-.16-.07-.31-.12-.49a5.2,5.2,0,0,0-.55-1.27,5.31,5.31,0,0,0-.75-1,5.8,5.8,0,0,0-1.15-.92,4.14,4.14,0,0,0-.59-.31A6,6,0,0,0,44.82,5l-.4,0h-.16l.09,5.41"/><path class="cls-4" d="M50,10.32a6,6,0,0,0-.11-.9c0-.16-.07-.31-.12-.49a5.2,5.2,0,0,0-.55-1.27,5.31,5.31,0,0,0-.75-1,5.8,5.8,0,0,0-1.15-.92,4.14,4.14,0,0,0-.59-.31A6,6,0,0,0,44.82,5l-.4,0h-.16l.09,5.41"/></g></g></g></svg>