<svg xmlns="http://www.w3.org/2000/svg" viewBox="0 0 54.72 50"><defs><style>.cls-1{isolation:isolate;}.cls-2{fill:#b3dee5;}.cls-3{fill:#31525b;}</style></defs><g id="Layer_2" data-name="Layer 2"><g id="Layer_1-2" data-name="Layer 1"><g class="cls-1"><path class="cls-2" d="M44.44,0H8.33A5.57,5.57,0,0,0,2.78,5.56V39.91a7.31,7.31,0,0,0,7.31,7.31h32.6A7.31,7.31,0,0,0,50,39.91V5.56A5.57,5.57,0,0,0,44.44,0Z"/><polygon class="cls-3" points="22.22 37.22 9.17 24.17 13.06 20.28 22.22 29.44 50.83 0.83 54.72 4.72 22.22 37.22"/><path class="cls-3" d="M44.44,22.78V44.44H5.56V5.56H38.33L43.89,0H5.56A5.57,5.57,0,0,0,0,5.56V44.44A5.57,5.57,0,0,0,5.56,50H44.44A5.57,5.57,0,0,0,50,44.44V17.22Z"/></g></g></g></svg>