<svg xmlns="http://www.w3.org/2000/svg" viewBox="0 0 104.33 104.48"><defs><style>.cls-1{isolation:isolate;}.cls-2{fill:#e1e0df;}.cls-3{fill:#f6f4ea;}.cls-4{fill:#b3dee5;}.cls-5{fill:#48909c;}.cls-6{fill:#fae6b1;}.cls-7{fill:#31525b;}.cls-8{fill:#a8b2c6;}</style></defs><g id="Layer_2" data-name="Layer 2"><g id="Layer_1-2" data-name="Layer 1"><g class="cls-1"><path class="cls-2" d="M71.11,3.18a9.5,9.5,0,0,0-3.3,1.3A10.33,10.33,0,0,1,71.11,3.18Z"/><path class="cls-3" d="M5.31,101.38l36-8a9.55,9.55,0,0,0,4.5-2.5L98.71,38a9.17,9.17,0,0,0,0-13L79.31,5.68a9.17,9.17,0,0,0-13,0l-52.9,52.9a9.55,9.55,0,0,0-2.5,4.5l-7.8,36.1a1.74,1.74,0,0,0,2.2,2.2"/><path class="cls-3" d="M92.31,44.58l6.5-6.5a9.17,9.17,0,0,0,0-13L79.41,5.58a9.17,9.17,0,0,0-13,0l-6.5,6.5,32.4,32.5"/><polyline class="cls-4" points="29.81 74.67 13.61 58.48 59.91 12.18 92.31 44.58 46.01 90.88 29.81 74.67"/><polyline class="cls-5" points="29.81 74.67 76.11 28.38 92.31 44.58 46.01 90.88 29.81 74.67"/><path class="cls-6" d="M90.11,16.5a9.17,9.17,0,0,1,0,13l-6.4,6.4L90,42.3l.1.1,6.5-6.5a9,9,0,0,0,2.7-6.4,9.25,9.25,0,0,0-2.7-6.5l-6.5-6.5m-6.4,19.4h0L90,42.3l-6.3-6.4M37.31,82.3h0a8.47,8.47,0,0,1-4.7,2.6L6.41,93.7.91,96.9v.2a1.76,1.76,0,0,0,1.6,2.3h.1a.9.9,0,0,0,.5-.1l36-8a9.55,9.55,0,0,0,4.5-2.5l.1-.1-6.4-6.4"/><polyline class="cls-7" points="85.81 38.08 39.51 84.47 46.01 90.88 92.31 44.58 92.21 44.48 85.81 38.08"/><path class="cls-8" d="M3.11,99.18l2.8-15.4,15,15-15.6,2.7A1.83,1.83,0,0,1,3.11,99.18Z"/><path class="cls-2" d="M100,36.68a9.68,9.68,0,0,0,1.4-3.3A10.59,10.59,0,0,1,100,36.68Z"/><path d="M77.21,7.78a6.28,6.28,0,0,0-8.8,0l-7.92,7.91-45,45a5.5,5.5,0,0,0-1.6,3l-7.6,34.4,34.4-7.6a6.73,6.73,0,0,0,3-1.6L96.61,36a6.28,6.28,0,0,0,0-8.8Zm-75.8,95.3a4.65,4.65,0,0,1-1.2-4.7l7.9-35.9a12,12,0,0,1,3.3-5.9l52.8-53a12.25,12.25,0,0,1,17.2-.1l19.4,19.4a12.38,12.38,0,0,1,0,17.3l-52.9,52.9a12.39,12.39,0,0,1-5.9,3.3l-35.9,7.9A4.65,4.65,0,0,1,1.41,103.08Z"/></g></g></g></svg>