<svg xmlns="http://www.w3.org/2000/svg" width="20" height="19" fill="none" viewBox="0 0 20 19">
  <g clip-path="url(#a)">
    <path fill="#31525B" fill-rule="evenodd" d="M.418 9.234c0 4.078 2.671 7.54 6.35 8.772.464.077.62-.192.62-.462v-1.577c-2.595.577-3.137-1.231-3.137-1.231-.426-1.078-1.045-1.347-1.045-1.347-.852-.577.077-.577.077-.577.93.077 1.433.962 1.433.962.813 1.423 2.168 1 2.71.77.077-.616.31-1.001.58-1.232-2.051-.23-4.22-1.039-4.22-4.578 0-1 .349-1.847.968-2.463-.077-.23-.426-1.154.078-2.462 0 0 .774-.23 2.555.962a9.386 9.386 0 0 1 2.323-.308c.775 0 1.588.115 2.323.308 1.781-1.193 2.556-.962 2.556-.962.503 1.27.193 2.193.077 2.462.58.654.968 1.462.968 2.463 0 3.54-2.168 4.309-4.259 4.54.349.269.62.846.62 1.692v2.54c0 .23.154.538.658.461 3.678-1.192 6.35-4.655 6.35-8.733C19.003 4.117 14.86 0 9.71 0 4.56 0 .418 4.117.418 9.234Z" clip-rule="evenodd"/>
  </g>
  <defs>
    <clipPath id="a">
      <path fill="#fff" d="M0 0h18.584v18.019H0z" transform="translate(.418)"/>
    </clipPath>
  </defs>
</svg>
