<svg xmlns="http://www.w3.org/2000/svg" width="21" height="20" fill="none" viewBox="0 0 21 20">
  <g clip-path="url(#a)">
    <path fill="#31525B" fill-rule="evenodd" d="M14.238 1.795a5.42 5.42 0 0 1 1.805.333 3.218 3.218 0 0 1 1.843 1.832c.214.574.327 1.18.335 1.793.046 1.018.056 1.323.056 3.9 0 2.578-.01 2.883-.056 3.901a5.324 5.324 0 0 1-.335 1.793 3.195 3.195 0 0 1-1.843 1.832 5.42 5.42 0 0 1-1.805.333c-1.024.046-1.33.056-3.925.056-2.594 0-2.901-.01-3.926-.056a5.42 5.42 0 0 1-1.804-.333 3.219 3.219 0 0 1-1.844-1.832 5.325 5.325 0 0 1-.334-1.793c-.046-1.018-.056-1.323-.056-3.9 0-2.578.01-2.883.056-3.901.008-.612.12-1.219.334-1.793a3.195 3.195 0 0 1 1.844-1.832 5.42 5.42 0 0 1 1.804-.333c1.025-.045 1.332-.056 3.926-.056 2.594 0 2.9.01 3.925.056ZM6.308.058a7.172 7.172 0 0 0-2.36.449A4.762 4.762 0 0 0 2.23 1.62a4.726 4.726 0 0 0-1.122 1.71 7.048 7.048 0 0 0-.451 2.344C.61 6.703.599 7.033.599 9.654c0 2.62.01 2.95.058 3.979.016.801.169 1.594.451 2.344a4.726 4.726 0 0 0 1.121 1.71A4.76 4.76 0 0 0 3.95 18.8a7.174 7.174 0 0 0 2.36.448c1.036.046 1.367.058 4.005.058s2.969-.01 4.005-.058a7.174 7.174 0 0 0 2.36-.448 4.976 4.976 0 0 0 1.72-1.115 4.948 4.948 0 0 0 1.12-1.71 7.05 7.05 0 0 0 .45-2.344c.047-1.029.058-1.359.058-3.979s-.01-2.95-.058-3.98a7.047 7.047 0 0 0-.452-2.344 4.724 4.724 0 0 0-1.12-1.71 4.762 4.762 0 0 0-1.72-1.113 7.172 7.172 0 0 0-2.36-.449C13.282.011 12.95 0 10.313 0 7.676 0 7.344.011 6.308.058Z" clip-rule="evenodd"/>
    <path fill="#31525B" fill-rule="evenodd" d="M7.54 5.532a4.964 4.964 0 0 0-1.838 2.224 4.928 4.928 0 0 0 1.081 5.403 5.018 5.018 0 0 0 5.436 1.075 4.982 4.982 0 0 0 2.24-1.827 4.935 4.935 0 0 0-.62-6.259 5.011 5.011 0 0 0-6.299-.616Zm.972 6.797a3.222 3.222 0 0 1-1.193-1.444 3.199 3.199 0 0 1 .702-3.507 3.257 3.257 0 0 1 3.529-.698 3.234 3.234 0 0 1 1.453 1.186 3.203 3.203 0 0 1-.402 4.063 3.249 3.249 0 0 1-4.09.4Zm6.986-6.67A1.162 1.162 0 0 1 14.332 4.5c0-.64.522-1.158 1.166-1.158A1.16 1.16 0 0 1 16.663 4.5c0 .64-.521 1.159-1.165 1.159Z" clip-rule="evenodd"/>
  </g>
  <defs>
    <clipPath id="a">
      <path fill="#fff" d="M0 0h19.429v19.307H0z" transform="translate(.599)"/>
    </clipPath>
  </defs>
</svg>
