<svg xmlns="http://www.w3.org/2000/svg" viewBox="0 0 32 32"><defs><style>.cls-1{isolation:isolate;}.cls-2{fill:#b3dee5;}.cls-3,.cls-5,.cls-6{fill:none;stroke-miterlimit:10;}.cls-3,.cls-6{stroke:#000;}.cls-3{stroke-width:2px;}.cls-4{fill:#31525b;}.cls-5{stroke:#31525b;stroke-width:0.9px;}</style></defs><g id="Layer_2" data-name="Layer 2"><g id="Layer_1-2" data-name="Layer 1"><g class="cls-1"><path class="cls-2" d="M9.18,31V11.91m19.09,0H16a24.71,24.71,0,0,1,1.13-5.46,8.62,8.62,0,0,0,.23-2.72A2.81,2.81,0,0,0,14.64,1L9.18,11.91H1V31H25.35A2.74,2.74,0,0,0,28,28.84l2.92-13.63A2.73,2.73,0,0,0,28.27,11.91Z"/><path class="cls-3" d="M9.18,31V11.91m19.09,0H16a24.71,24.71,0,0,1,1.13-5.46,8.62,8.62,0,0,0,.23-2.72A2.81,2.81,0,0,0,14.64,1L9.18,11.91H1V31H25.35A2.74,2.74,0,0,0,28,28.84l2.92-13.63A2.73,2.73,0,0,0,28.27,11.91Z"/><rect class="cls-4" x="2.44" y="13.35" width="5.31" height="16.21"/><rect class="cls-5" x="2.44" y="13.35" width="5.31" height="16.21"/><path d="M5.09,25.55a1.36,1.36,0,1,0,1.36,1.36A1.36,1.36,0,0,0,5.09,25.55Z"/><path class="cls-6" d="M5.09,25.55a1.36,1.36,0,1,0,1.36,1.36A1.36,1.36,0,0,0,5.09,25.55Z"/></g></g></g></svg>