<svg xmlns="http://www.w3.org/2000/svg" width="100" height="100" fill="none" viewBox="0 0 100 100">
  <path stroke="#000" stroke-miterlimit="10" stroke-width="5" d="M28.688 96.875V37.219m0 0L45.75 3.125a8.781 8.781 0 0 1 8.5 8.531 26.935 26.935 0 0 1-.719 8.5A77.223 77.223 0 0 0 50 37.22h38.344a8.531 8.531 0 0 1 8.281 10.312L87.5 90.125a8.563 8.563 0 0 1-8.281 6.75H3.125V37.219h25.563Z"/>
  <path fill="#000" d="M15.906 79.844a4.25 4.25 0 1 0 0 8.5 4.25 4.25 0 0 0 0-8.5Z"/>
  <path stroke="#000" stroke-miterlimit="10" d="M15.906 79.844a4.25 4.25 0 1 0 0 8.5 4.25 4.25 0 0 0 0-8.5Z"/>
</svg>
