<svg xmlns="http://www.w3.org/2000/svg" viewBox="0 0 40 32"><defs><style>.cls-1,.cls-3{fill:#b3dee5;}.cls-1{isolation:isolate;}.cls-1,.cls-2{opacity:0.65;}.cls-4{fill:#31525b;}</style></defs><g id="Layer_2" data-name="Layer 2"><g id="Layer_1-2" data-name="Layer 1"><g id="Layer_2-2" data-name="Layer 2"><g id="Layer_1-2-2" data-name="Layer 1-2"><path class="cls-1" d="M36,31.83H4a4,4,0,0,1-4-4V5.48L20,17.83,40,5.48V27.83A4,4,0,0,1,36,31.83Z"/><g class="cls-2"><polygon class="cls-3" points="2.86 3.27 36.92 2.99 37.37 6.1 20.74 15.96 12.75 11.22 3.59 5.96 2.55 5.55 2.86 3.27"/></g><path class="cls-4" d="M4,10V4H36v6l4-2.49V4a4,4,0,0,0-4-4H4A4,4,0,0,0,0,4V7.47ZM0,12.19V28a4,4,0,0,0,4,4H36a4,4,0,0,0,4-4V12.26l-4,2.49V28H4V14.69Z"/><polygon class="cls-4" points="20.01 15.5 2.01 4.22 2.01 8.72 20.01 20 38.01 8.79 38.01 4.29 20.01 15.5"/></g></g></g></g></svg>