<svg xmlns="http://www.w3.org/2000/svg" viewBox="0 0 40 39.84"><defs><style>.cls-1{isolation:isolate;}</style></defs><g id="Layer_2" data-name="Layer 2"><g id="Layer_1-2" data-name="Layer 1"><g class="cls-1"><path d="M4.3,3.48H24.13a1,1,0,0,0,1-1,1,1,0,0,0-1-1H4.3A4.29,4.29,0,0,0,0,5.8V35.54a4.29,4.29,0,0,0,4.3,4.3H34a4.29,4.29,0,0,0,4.3-4.3V22.32a1,1,0,0,0-2,0V35.54A2.31,2.31,0,0,1,34,37.86H4.3A2.31,2.31,0,0,1,2,35.54V5.8A2.31,2.31,0,0,1,4.3,3.48Z"/><path d="M37.45,5.37,25.12,17.69a25.26,25.26,0,0,1-8.26,5.46,24.4,24.4,0,0,1,5.45-8.23L34.64,2.59A1.92,1.92,0,0,1,36,2a1.87,1.87,0,0,1,1.38.59A1.94,1.94,0,0,1,37.45,5.37Zm-4.2-4.2L20.89,13.5a26.91,26.91,0,0,0-6.61,11,1.07,1.07,0,0,0,.23,1,1,1,0,0,0,.69.3,1,1,0,0,0,.3,0,26.59,26.59,0,0,0,11-6.61L36.92,8.67a2.32,2.32,0,0,1,.46,1.39,2.15,2.15,0,0,1-.69,1.62l-5.16,5.16a.94.94,0,0,0,0,1.38,1,1,0,0,0,1.39,0l5.22-5.15a4.23,4.23,0,0,0,1.26-3,4.38,4.38,0,0,0-1-2.81l.46-.47a3.95,3.95,0,1,0-5.58-5.58Z"/></g></g></g></svg>