<svg xmlns="http://www.w3.org/2000/svg" xmlns:xlink="http://www.w3.org/1999/xlink" viewBox="0 0 1000.08 677.44"><defs><style>.cls-1{fill:none;}.cls-2{isolation:isolate;}.cls-3{clip-path:url(#clip-path);}.cls-4{fill:#b3dee5;}.cls-5{fill:#48909c;}.cls-6{fill:#31525b;}</style><clipPath id="clip-path" transform="translate(-0.07 -0.97)"><rect class="cls-1" width="1001" height="679"/></clipPath></defs><g id="Layer_2" data-name="Layer 2"><g id="Layer_1-2" data-name="Layer 1"><g class="cls-2"><g class="cls-3"><path class="cls-4" d="M.15,1h40V361H.15Zm160,0h40V361h-40Zm160,0h40V361h-40Z" transform="translate(-0.07 -0.97)"/><path class="cls-4" d="M480.14,1h40V361h-40Zm160,0h40V361h-40Z" transform="translate(-0.07 -0.97)"/><path class="cls-4" d="M800.15,1h40V361h-40Zm160,0h40V361h-40Z" transform="translate(-0.07 -0.97)"/><path class="cls-5" d="M220.16,223h100v26.45h-100Zm0,105.79h100v26.45h-100ZM60.15,223h100v26.45h-100Zm0,105.79h100v26.45h-100Z" transform="translate(-0.07 -0.97)"/><path class="cls-6" d="M200.16,223h20v26.45h-20Zm0,105.79h20v26.45h-20ZM40.15,223h20v26.45h-20Zm0,105.79h20v26.45h-20Z" transform="translate(-0.07 -0.97)"/><path class="cls-5" d="M540.14,223h100v26.45h-100Zm0,105.79h100v26.45h-100ZM380.13,223h100v26.45h-100Zm0,105.79h100v26.45h-100Z" transform="translate(-0.07 -0.97)"/><path class="cls-6" d="M520.14,223h20v26.45h-20Zm0,105.79h20v26.45h-20ZM360.13,223h20v26.45h-20Zm0,105.79h20v26.45h-20Z" transform="translate(-0.07 -0.97)"/><path class="cls-5" d="M860.15,223h100v26.45h-100Zm0,105.79h100v26.45h-100ZM700.14,223h100v26.45h-100Zm0,105.79h100v26.45h-100Z" transform="translate(-0.07 -0.97)"/><path class="cls-6" d="M840.15,223h20v26.45h-20Zm0,105.79h20v26.45h-20ZM680.14,223h20v26.45h-20Zm0,105.79h20v26.45h-20Z" transform="translate(-0.07 -0.97)"/><path class="cls-5" d="M860.15,11.36h100V37.81h-100Zm0,105.79h100V143.6h-100Zm-160-105.79h100V37.81h-100Zm0,105.79h100V143.6h-100Z" transform="translate(-0.07 -0.97)"/><path class="cls-6" d="M840.21,11.35h20V37.8h-20Zm0,105.79h20v26.45h-20Zm-160-105.79h20V37.8h-20Zm0,105.79h20v26.45h-20Z" transform="translate(-0.07 -0.97)"/><path class="cls-5" d="M540.12,11.37h100V37.82h-100Zm0,105.79h100v26.45h-100Zm-160-105.79h100V37.82h-100Zm0,105.79h100v26.45h-100Z" transform="translate(-0.07 -0.97)"/><path class="cls-6" d="M520.18,11.36h20V37.8h-20Zm0,105.79h20V143.6h-20Zm-160-105.79h20V37.8h-20Zm0,105.79h20V143.6h-20Z" transform="translate(-0.07 -0.97)"/><path class="cls-5" d="M220.16,11.34h100V37.79h-100Zm0,105.79h100v26.45h-100ZM60.16,11.34h100V37.79h-100Zm0,105.79h100v26.45h-100Z" transform="translate(-0.07 -0.97)"/><path class="cls-6" d="M200.22,11.33h20V37.77h-20Zm0,105.79h20v26.45h-20ZM40.21,11.33h20V37.77h-20Zm0,105.79h20v26.45h-20Z" transform="translate(-0.07 -0.97)"/><path class="cls-4" d="M.07,318.4h40v360H.07Zm160,0h40v360h-40Zm160,0h40v360h-40Z" transform="translate(-0.07 -0.97)"/><path class="cls-4" d="M480.05,318.4h40v360h-40Zm160,0h40v360h-40Z" transform="translate(-0.07 -0.97)"/><path class="cls-4" d="M800.06,318.4h40v360h-40Zm160,0h40v360h-40Z" transform="translate(-0.07 -0.97)"/><path class="cls-5" d="M220.07,540.45h100V566.9h-100Zm0,105.79h100v26.45h-100Zm-160-105.79h100V566.9h-100Zm0,105.79h100v26.45h-100Z" transform="translate(-0.07 -0.97)"/><path class="cls-6" d="M200.07,540.45h20V566.9h-20Zm0,105.79h20v26.45h-20Zm-160-105.79h20V566.9h-20Zm0,105.79h20v26.45h-20Z" transform="translate(-0.07 -0.97)"/><path class="cls-5" d="M540.06,540.45h100V566.9h-100Zm0,105.79h100v26.45h-100Zm-160-105.79h100V566.9h-100Zm0,105.79h100v26.45h-100Z" transform="translate(-0.07 -0.97)"/><path class="cls-6" d="M520.06,540.45h20V566.9h-20Zm0,105.79h20v26.45h-20Zm-160-105.79h20V566.9h-20Zm0,105.79h20v26.45h-20Z" transform="translate(-0.07 -0.97)"/><path class="cls-5" d="M860.06,540.45h100V566.9h-100Zm0,105.79h100v26.45h-100Zm-160-105.79h100V566.9h-100Zm0,105.79h100v26.45h-100Z" transform="translate(-0.07 -0.97)"/><path class="cls-6" d="M840.06,540.45h20V566.9h-20Zm0,105.79h20v26.45h-20Zm-160-105.79h20V566.9h-20Zm0,105.79h20v26.45h-20Z" transform="translate(-0.07 -0.97)"/><path class="cls-5" d="M860.07,328.8h100v26.44h-100Zm0,105.79h100V461h-100Zm-160-105.79h100v26.44h-100Zm0,105.79h100V461h-100Z" transform="translate(-0.07 -0.97)"/><path class="cls-6" d="M840.13,328.78h20v26.45h-20Zm0,105.8h20V461h-20Zm-160-105.8h20v26.45h-20Zm0,105.8h20V461h-20Z" transform="translate(-0.07 -0.97)"/><path class="cls-5" d="M540,328.8H640v26.45H540Zm0,105.8H640V461H540ZM380,328.8H480v26.45H380Zm0,105.8H480V461H380Z" transform="translate(-0.07 -0.97)"/><path class="cls-6" d="M520.09,328.79h20v26.45h-20Zm0,105.79h20V461h-20Zm-160-105.79h20v26.45h-20Zm0,105.79h20V461h-20Z" transform="translate(-0.07 -0.97)"/><path class="cls-5" d="M220.08,328.77h100v26.45h-100Zm0,105.8h100V461h-100Zm-160-105.8h100v26.45h-100Zm0,105.8h100V461h-100Z" transform="translate(-0.07 -0.97)"/><path class="cls-6" d="M200.13,328.76h20v26.45h-20Zm0,105.79h20V461h-20Zm-160-105.79h20v26.45h-20Zm0,105.79h20V461h-20Z" transform="translate(-0.07 -0.97)"/></g></g></g></g></svg>