<svg xmlns="http://www.w3.org/2000/svg" viewBox="0 0 102.26 102.27"><defs><style>.cls-1{isolation:isolate;}.cls-2{fill:#ffa101;}.cls-11,.cls-12,.cls-3,.cls-5,.cls-7,.cls-9{fill:none;stroke-linejoin:round;}.cls-11,.cls-12,.cls-3{stroke:#000;}.cls-3,.cls-5,.cls-7,.cls-9{stroke-width:2.19px;}.cls-4{fill:#fae6b1;}.cls-5{stroke:#fae6b1;}.cls-12,.cls-5,.cls-7,.cls-9{stroke-linecap:round;}.cls-6{fill:#31525b;}.cls-7{stroke:#31525b;}.cls-8{fill:#b3dee5;}.cls-9{stroke:#b3dee5;}.cls-10{opacity:0.01;}.cls-11,.cls-12{stroke-width:2.51px;}</style></defs><g id="Layer_2" data-name="Layer 2"><g id="Layer_1-2" data-name="Layer 1"><g class="cls-1"><rect class="cls-2" x="1.09" y="1.09" width="100.07" height="100.08" rx="8"/><rect class="cls-3" x="1.09" y="1.09" width="100.07" height="100.08" rx="8"/><rect class="cls-4" x="66.45" y="84.34" width="8.85" height="4.08"/><rect class="cls-5" x="66.45" y="84.34" width="8.85" height="4.08"/><polygon class="cls-6" points="22.1 64.83 79.97 64.65 78.83 81.79 23.3 81.73 22.1 64.83"/><polygon class="cls-7" points="22.1 64.83 79.97 64.65 78.83 81.79 23.3 81.73 22.1 64.83"/><polygon class="cls-8" points="23.38 15.51 49.83 14.69 50.83 63.02 22.69 62.77 23.38 15.51"/><polygon class="cls-9" points="23.38 15.51 49.83 14.69 50.83 63.02 22.69 62.77 23.38 15.51"/><polygon class="cls-8" points="79.36 15.63 52.9 14.82 51.9 63.15 80.05 62.9 79.36 15.63"/><polygon class="cls-9" points="79.36 15.63 52.9 14.82 51.9 63.15 80.05 62.9 79.36 15.63"/><rect class="cls-4" x="26.66" y="83.84" width="8.32" height="4.32"/><rect class="cls-5" x="26.66" y="83.84" width="8.32" height="4.32"/><rect class="cls-10" x="21.13" y="13.63" width="60" height="70" rx="5"/><rect class="cls-11" x="21.13" y="13.63" width="60" height="70" rx="5"/><line class="cls-11" x1="21.13" y1="63.63" x2="81.13" y2="63.63"/><line class="cls-11" x1="51.13" y1="13.63" x2="51.13" y2="63.63"/><line class="cls-12" x1="41.13" y1="33.63" x2="41.13" y2="43.63"/><line class="cls-12" x1="61.13" y1="33.63" x2="61.13" y2="43.63"/><polyline class="cls-11" points="26.13 83.63 26.13 88.63 36.13 88.63 36.13 83.63"/><polyline class="cls-11" points="76.13 83.63 76.13 88.63 66.13 88.63 66.13 83.63"/></g></g></g></svg>