<svg xmlns="http://www.w3.org/2000/svg" viewBox="0 0 42.51 42.39"><defs><style>.cls-1{isolation:isolate;}.cls-2{fill:#b3dee5;}.cls-3{fill:none;stroke:#31525b;stroke-miterlimit:10;stroke-width:2.51px;}</style></defs><g id="Layer_2" data-name="Layer 2"><g id="Layer_1-2" data-name="Layer 1"><g class="cls-1"><path class="cls-2" d="M17.24,8.72l-6.8-7a2.26,2.26,0,0,0-2.82,0L2.47,7.06a3.64,3.64,0,0,0-1,4A50.47,50.47,0,0,0,13.09,29.29,53,53,0,0,0,31.34,40.91a4.22,4.22,0,0,0,4.15-.83l5.14-5.15a1.91,1.91,0,0,0,0-2.82l-6.8-6.8a1.91,1.91,0,0,0-2.82,0l-4.15,4.15A31.7,31.7,0,0,1,18.57,24a25.49,25.49,0,0,1-5.48-8.29l4.15-4.15A1.91,1.91,0,0,0,17.24,8.72Z"/><path class="cls-3" d="M17.24,8.72l-6.8-7a2.26,2.26,0,0,0-2.82,0L2.47,7.06a3.64,3.64,0,0,0-1,4A50.47,50.47,0,0,0,13.09,29.29,53,53,0,0,0,31.34,40.91a4.22,4.22,0,0,0,4.15-.83l5.14-5.15a1.91,1.91,0,0,0,0-2.82l-6.8-6.8a1.91,1.91,0,0,0-2.82,0l-4.15,4.15A31.7,31.7,0,0,1,18.57,24a25.49,25.49,0,0,1-5.48-8.29l4.15-4.15A1.91,1.91,0,0,0,17.24,8.72Z"/></g></g></g></svg>