<svg xmlns="http://www.w3.org/2000/svg" viewBox="0 0 102.51 79.43"><defs><style>.cls-1{fill:#b3dee5;}.cls-2{fill:none;stroke:#31525b;stroke-miterlimit:10;stroke-width:2.51px;}</style></defs><g id="Layer_2" data-name="Layer 2"><g id="Layer_1-2" data-name="Layer 1"><path class="cls-1" d="M74,31.72c-3.74,3.74-8.86,5-12.89,3.55L34.75,61.66a3.85,3.85,0,0,1-5.44-5.44L42,43.56l-8.78-8.77A18.49,18.49,0,0,1,30,13L51.25,34.28l4.44-4.44c-1.43-4-.18-9.15,3.56-12.89,4.9-4.9,12.17-5.56,16.25-1.48S78.92,26.82,74,31.72Zm-.82,30a3.85,3.85,0,0,1-5.44,0L56.23,50.13l5.44-5.44L73.21,56.23A3.85,3.85,0,0,1,73.21,61.67ZM93.56,1.25H9A7.7,7.7,0,0,0,1.25,9V70.49A7.69,7.69,0,0,0,9,78.18H93.56a7.69,7.69,0,0,0,7.69-7.69V9A7.69,7.69,0,0,0,93.56,1.25Z"/><path class="cls-2" d="M74,31.72c-3.74,3.74-8.86,5-12.89,3.55L34.75,61.66a3.85,3.85,0,0,1-5.44-5.44L42,43.56l-8.78-8.77A18.49,18.49,0,0,1,30,13L51.25,34.28l4.44-4.44c-1.43-4-.18-9.15,3.56-12.89,4.9-4.9,12.17-5.56,16.25-1.48S78.92,26.82,74,31.72Zm-.82,30a3.85,3.85,0,0,1-5.44,0L56.23,50.13l5.44-5.44L73.21,56.23A3.85,3.85,0,0,1,73.21,61.67ZM93.56,1.25H9A7.7,7.7,0,0,0,1.25,9V70.49A7.69,7.69,0,0,0,9,78.18H93.56a7.69,7.69,0,0,0,7.69-7.69V9A7.69,7.69,0,0,0,93.56,1.25Z"/></g></g></svg>