<svg xmlns="http://www.w3.org/2000/svg" viewBox="0 0 102.26 102.27"><defs><style>.cls-1{isolation:isolate;}.cls-2{fill:#ffa101;}.cls-10,.cls-11,.cls-13,.cls-3,.cls-5,.cls-7,.cls-9{fill:none;}.cls-10,.cls-13,.cls-3,.cls-7{stroke:#000;}.cls-10,.cls-3,.cls-5,.cls-7{stroke-linejoin:round;}.cls-3,.cls-5{stroke-width:2.19px;}.cls-4{fill:#b3dee5;}.cls-5{stroke:#b3dee5;}.cls-10,.cls-11,.cls-5,.cls-7,.cls-9{stroke-linecap:round;}.cls-6{fill:#31525b;}.cls-11,.cls-13,.cls-7,.cls-9{stroke-width:2.51px;}.cls-8{fill:#fff;}.cls-9{stroke:#fff;}.cls-11,.cls-13,.cls-9{stroke-miterlimit:10;}.cls-10{stroke-width:3px;}.cls-11{stroke:#31525b;}.cls-12{fill:#6e0b0b;opacity:0;}</style></defs><g id="Layer_2" data-name="Layer 2"><g id="Layer_1-2" data-name="Layer 1"><g class="cls-1"><rect class="cls-2" x="1.09" y="1.09" width="100.07" height="100.08" rx="8"/><rect class="cls-3" x="1.09" y="1.09" width="100.07" height="100.08" rx="8"/><polygon class="cls-4" points="19.33 14.66 27.75 14.23 27.91 82.07 19.17 81.31 19.33 14.66"/><polygon class="cls-5" points="19.33 14.66 27.75 14.23 27.91 82.07 19.17 81.31 19.33 14.66"/><polyline class="cls-6" points="25.68 82.97 25.73 93.42 32.5 86.27 39.27 93.42 39.35 82.78"/><polyline class="cls-7" points="25.68 82.97 25.73 93.42 32.5 86.27 39.27 93.42 39.35 82.78"/><rect class="cls-8" x="28.4" y="14.28" width="54.54" height="67.48"/><rect class="cls-9" x="28.4" y="14.28" width="54.54" height="67.48"/><path class="cls-4" d="M67.2,49.86a8.38,8.38,0,0,0,4.62-.81M48,32.47a9.24,9.24,0,0,0-1,6.41M61.65,61v-3.7M50.56,61v-7.4m25.89-12a8.33,8.33,0,0,0-8.32-8.32,8.19,8.19,0,0,0-3.32.7A9.19,9.19,0,0,0,47.4,34a8.11,8.11,0,0,0-3.31-.7A8.3,8.3,0,0,0,41.31,49.4v19H70.9v-19A8.28,8.28,0,0,0,76.45,41.59ZM41.31,61H70.9"/><path class="cls-10" d="M67.2,49.86a8.38,8.38,0,0,0,4.62-.81M48,32.47a9.24,9.24,0,0,0-1,6.41M61.65,61v-3.7M50.56,61v-7.4m25.89-12a8.33,8.33,0,0,0-8.32-8.32,8.19,8.19,0,0,0-3.32.7A9.19,9.19,0,0,0,47.4,34a8.11,8.11,0,0,0-3.31-.7A8.3,8.3,0,0,0,41.31,49.4v19H70.9v-19A8.28,8.28,0,0,0,76.45,41.59ZM41.31,61H70.9"/><rect class="cls-6" x="41.55" y="61.53" width="28.52" height="6.29"/><rect class="cls-11" x="41.55" y="61.53" width="28.52" height="6.29"/><path class="cls-12" d="M67.2,49.86a8.38,8.38,0,0,0,4.62-.81M48,32.47a9.24,9.24,0,0,0-1,6.41M61.65,61v-3.7M50.56,61v-7.4m25.89-12a8.33,8.33,0,0,0-8.32-8.32,8.19,8.19,0,0,0-3.32.7A9.19,9.19,0,0,0,47.4,34a8.11,8.11,0,0,0-3.31-.7A8.3,8.3,0,0,0,41.31,49.4v19H70.9v-19A8.28,8.28,0,0,0,76.45,41.59ZM41.31,61H70.9"/><path class="cls-10" d="M67.2,49.86a8.38,8.38,0,0,0,4.62-.81M48,32.47a9.24,9.24,0,0,0-1,6.41M61.65,61v-3.7M50.56,61v-7.4m25.89-12a8.33,8.33,0,0,0-8.32-8.32,8.19,8.19,0,0,0-3.32.7A9.19,9.19,0,0,0,47.4,34a8.11,8.11,0,0,0-3.31-.7A8.3,8.3,0,0,0,41.31,49.4v19H70.9v-19A8.28,8.28,0,0,0,76.45,41.59ZM41.31,61H70.9"/><path class="cls-13" d="M28.25,82.13V14m53.39-.57h-61a2.43,2.43,0,0,0-2.54,2.31V80.4a2.43,2.43,0,0,0,2.54,2.31h61a2.44,2.44,0,0,0,2.55-2.31V15.73A2.44,2.44,0,0,0,81.64,13.42Z"/></g></g></g></svg>