<svg xmlns="http://www.w3.org/2000/svg" viewBox="0 0 102.26 102.27"><defs><style>.cls-1{isolation:isolate;}.cls-2{fill:#ffa101;}.cls-11,.cls-3,.cls-5,.cls-7,.cls-8,.cls-9{fill:none;stroke:#000;}.cls-11,.cls-3,.cls-7{stroke-linejoin:round;}.cls-3{stroke-width:2.19px;}.cls-4{fill:#fff;}.cls-11,.cls-5{stroke-linecap:square;}.cls-5,.cls-8,.cls-9{stroke-miterlimit:10;}.cls-11,.cls-5,.cls-7,.cls-8{stroke-width:2.51px;}.cls-6{opacity:0.01;}.cls-7{stroke-linecap:round;}.cls-9{stroke-width:0.14px;}.cls-10{fill:#31525b;}</style></defs><g id="Layer_2" data-name="Layer 2"><g id="Layer_1-2" data-name="Layer 1"><g class="cls-1"><rect class="cls-2" x="1.09" y="1.09" width="100.07" height="100.08" rx="8"/><rect class="cls-3" x="1.09" y="1.09" width="100.07" height="100.08" rx="8"/><path class="cls-4" d="M64.8,14H80.42a3.92,3.92,0,0,1,3.9,3.9V88.23a3.91,3.91,0,0,1-3.9,3.9H21.84a3.91,3.91,0,0,1-3.9-3.9V17.94a3.92,3.92,0,0,1,3.9-3.9H37.46"/><path class="cls-5" d="M64.8,14H80.42a3.92,3.92,0,0,1,3.9,3.9V88.23a3.91,3.91,0,0,1-3.9,3.9H21.84a3.91,3.91,0,0,1-3.9-3.9V17.94a3.92,3.92,0,0,1,3.9-3.9H37.46"/><path class="cls-6" d="M41.39,49.32,34.3,58.18,29,54.63M41.39,33.37,34.3,42.23,29,38.69"/><path class="cls-7" d="M41.39,49.32,34.3,58.18,29,54.63M41.39,33.37,34.3,42.23,29,38.69"/><path class="cls-8" d="M48.82,70.58H73.63M48.82,54.63H73.63M48.82,38.69H73.63"/><path d="M30.86,66.42h8.65v8.65H30.86Zm-1.08-2.16a1.08,1.08,0,0,0-1.08,1.08V76.15a1.08,1.08,0,0,0,1.08,1.08H40.59a1.08,1.08,0,0,0,1.08-1.08V65.34a1.09,1.09,0,0,0-1.08-1.08Z"/><path class="cls-9" d="M30.86,66.42h8.65v8.65H30.86Zm-1.08-2.16a1.08,1.08,0,0,0-1.08,1.08V76.15a1.08,1.08,0,0,0,1.08,1.08H40.59a1.08,1.08,0,0,0,1.08-1.08V65.34a1.09,1.09,0,0,0-1.08-1.08Z"/><path class="cls-10" d="M39.42,10.13H62.84a2,2,0,0,1,2,2v5.85a3.91,3.91,0,0,1-3.91,3.91H41.37a3.91,3.91,0,0,1-3.91-3.91V12.09A2,2,0,0,1,39.42,10.13Z"/><path class="cls-11" d="M39.42,10.13H62.84a2,2,0,0,1,2,2v5.85a3.91,3.91,0,0,1-3.91,3.91H41.37a3.91,3.91,0,0,1-3.91-3.91V12.09A2,2,0,0,1,39.42,10.13Z"/></g></g></g></svg>