<svg xmlns="http://www.w3.org/2000/svg" viewBox="0 0 102.26 102.27"><defs><style>.cls-1{isolation:isolate;}.cls-2,.cls-3,.cls-4,.cls-6,.cls-7,.cls-8{fill:none;stroke:#000;}.cls-2,.cls-8{stroke-linecap:square;}.cls-2,.cls-3,.cls-6{stroke-linejoin:round;}.cls-2,.cls-3,.cls-7,.cls-8{stroke-width:2.51px;}.cls-3{stroke-linecap:round;}.cls-4,.cls-7,.cls-8{stroke-miterlimit:10;}.cls-4{stroke-width:0.14px;}.cls-5{opacity:0.01;}.cls-6{stroke-width:2.19px;}</style></defs><g id="Layer_2" data-name="Layer 2"><g id="Layer_1-2" data-name="Layer 1"><g class="cls-1"><path class="cls-2" d="M39.42,10.13H62.84a2,2,0,0,1,2,2v5.85a3.91,3.91,0,0,1-3.91,3.91H41.37a3.91,3.91,0,0,1-3.91-3.91V12.09A2,2,0,0,1,39.42,10.13Z"/><path class="cls-3" d="M41.38,49.32,34.3,58.18,29,54.63m12.4-21.26L34.3,42.23,29,38.69"/><path d="M30.86,66.42h8.65v8.65H30.86Zm-1.08-2.16a1.08,1.08,0,0,0-1.08,1.08V76.15a1.08,1.08,0,0,0,1.08,1.08H40.59a1.08,1.08,0,0,0,1.08-1.08V65.34a1.09,1.09,0,0,0-1.08-1.08Z"/><path class="cls-4" d="M30.86,66.42h8.65v8.65H30.86Zm-1.08-2.16a1.08,1.08,0,0,0-1.08,1.08V76.15a1.08,1.08,0,0,0,1.08,1.08H40.59a1.08,1.08,0,0,0,1.08-1.08V65.34a1.09,1.09,0,0,0-1.08-1.08Z"/><rect class="cls-5" x="1.09" y="1.09" width="100.07" height="100.08" rx="8"/><rect class="cls-6" x="1.09" y="1.09" width="100.07" height="100.08" rx="8"/><path class="cls-7" d="M48.82,70.58H73.63M48.82,54.63H73.63M48.82,38.69H73.63"/><path class="cls-8" d="M64.8,14H80.42a3.92,3.92,0,0,1,3.9,3.9V88.23a3.91,3.91,0,0,1-3.9,3.9H21.84a3.91,3.91,0,0,1-3.9-3.9V17.94a3.92,3.92,0,0,1,3.9-3.9H37.46"/></g></g></g></svg>