<svg xmlns="http://www.w3.org/2000/svg" xmlns:xlink="http://www.w3.org/1999/xlink" viewBox="0 0 102.51 80.18"><defs><style>.cls-1,.cls-6{fill:none;}.cls-2{isolation:isolate;}.cls-3{clip-path:url(#clip-path);}.cls-4{clip-path:url(#clip-path-2);}.cls-5{fill:#b3dee5;}.cls-6{stroke:#31525b;stroke-linecap:round;stroke-linejoin:round;stroke-width:2.51px;}</style><clipPath id="clip-path" transform="translate(-1.75 -1.91)"><rect class="cls-1" width="106" height="84"/></clipPath><clipPath id="clip-path-2" transform="translate(-1.75 -1.91)"><rect class="cls-1" x="-203" y="-214" width="512" height="512"/></clipPath></defs><g id="Layer_2" data-name="Layer 2"><g id="Layer_1-2" data-name="Layer 1"><g class="cls-2"><g class="cls-3"><g class="cls-4"><path class="cls-5" d="M53,67.89C39.19,67.89,28,56.3,28,42S39.19,16.11,53,16.11,78,27.7,78,42,66.81,67.89,53,67.89ZM3,11.79V72.21a8.49,8.49,0,0,0,8.33,8.63H94.67A8.49,8.49,0,0,0,103,72.21V11.79a8.49,8.49,0,0,0-8.33-8.63H11.33A8.49,8.49,0,0,0,3,11.79Z" transform="translate(-1.75 -1.91)"/><path class="cls-6" d="M53,67.89C39.19,67.89,28,56.3,28,42S39.19,16.11,53,16.11,78,27.7,78,42,66.81,67.89,53,67.89ZM3,11.79V72.21a8.49,8.49,0,0,0,8.33,8.63H94.67A8.49,8.49,0,0,0,103,72.21V11.79a8.49,8.49,0,0,0-8.33-8.63H11.33A8.49,8.49,0,0,0,3,11.79Z" transform="translate(-1.75 -1.91)"/><polyline class="cls-6" points="52.88 27.34 52.88 40.29 44.55 48.92"/></g></g></g></g></g></svg>