<svg xmlns="http://www.w3.org/2000/svg" width="17" height="14" fill="none" viewBox="0 0 17 14">
  <g clip-path="url(#a)">
    <path fill="#31525B" d="M14.845 2.885c.668-.398 1.202-1.028 1.436-1.791a7.262 7.262 0 0 1-2.103.796A3.338 3.338 0 0 0 11.774.86c-1.802 0-3.271 1.46-3.271 3.251 0 .266.033.498.1.73a9.373 9.373 0 0 1-6.777-3.417c-.267.498-.434 1.029-.434 1.626 0 1.128.568 2.123 1.47 2.72a3.882 3.882 0 0 1-1.503-.398v.033a3.283 3.283 0 0 0 2.637 3.218 3.66 3.66 0 0 1-.868.1c-.2 0-.434-.034-.634-.067.434 1.294 1.636 2.255 3.071 2.255-1.135.863-2.537 1.394-4.073 1.394-.267 0-.534 0-.767-.033a9.333 9.333 0 0 0 5.04 1.46c6.043 0 9.347-4.977 9.347-9.29v-.43a5.975 5.975 0 0 0 1.636-1.659c-.6.265-1.235.431-1.903.53Z"/>
  </g>
  <defs>
    <clipPath id="a">
      <path fill="#fff" d="M0 0h16.024v12.871H0z" transform="translate(.725 .861)"/>
    </clipPath>
  </defs>
</svg>
