<svg xmlns="http://www.w3.org/2000/svg" viewBox="0 0 102.26 102.27"><defs><style>.cls-1{isolation:isolate;}.cls-2,.cls-3{fill:none;}.cls-2,.cls-3,.cls-4{stroke:#000;}.cls-2{stroke-linejoin:round;stroke-width:2.19px;}.cls-3,.cls-4{stroke-miterlimit:10;stroke-width:2.51px;}.cls-4{stroke-linecap:round;}</style></defs><g id="Layer_2" data-name="Layer 2"><g id="Layer_1-2" data-name="Layer 1"><g class="cls-1"><rect class="cls-2" x="1.09" y="1.09" width="100.07" height="100.08" rx="8"/><path class="cls-3" d="M15.13,40.63h72m-12-27v18m-48-18v18m54,57h-60a6,6,0,0,1-6-6v-54a6,6,0,0,1,6-6h60a6,6,0,0,1,6,6v54A6,6,0,0,1,81.13,88.63Z"/><path class="cls-3" d="M72.13,61.63h6v6h-6Zm-24,12h6v6h-6Zm-24,0h6v6h-6Zm12,0h6v6h-6Zm24-12h6v6h-6Zm-12,0h6v6h-6Zm-24,0h6v6h-6Zm12,0h6v6h-6Zm36-12h6v6h-6Zm-12,0h6v6h-6Zm-12,0h6v6h-6Zm-12,0h6v6h-6Z"/></g><rect class="cls-4" x="24.9" y="62.46" width="3.51" height="3.51"/><rect class="cls-4" x="37.53" y="62.62" width="2.77" height="2.98"/><rect class="cls-4" x="49.24" y="62.62" width="3.34" height="3.34"/><rect class="cls-4" x="61.01" y="62.62" width="3.22" height="3.22"/><rect class="cls-4" x="73.34" y="62.62" width="2.83" height="3.34"/></g></g></svg>