<svg xmlns="http://www.w3.org/2000/svg" viewBox="0 0 102.26 102.27"><defs><style>.cls-1{isolation:isolate;}.cls-2{fill:#ffa101;}.cls-3,.cls-5,.cls-7,.cls-8,.cls-9{fill:none;}.cls-3,.cls-8{stroke:#000;}.cls-3{stroke-linejoin:round;stroke-width:2.19px;}.cls-4{fill:#b3dee5;}.cls-5{stroke:#b3dee5;}.cls-10,.cls-5,.cls-7,.cls-8,.cls-9{stroke-miterlimit:10;stroke-width:2.51px;}.cls-6{fill:#fff;}.cls-7{stroke:#fff;}.cls-10,.cls-7{stroke-linecap:round;}.cls-10,.cls-9{stroke:#31525b;}.cls-10{fill:#31525b;}</style></defs><g id="Layer_2" data-name="Layer 2"><g id="Layer_1-2" data-name="Layer 1"><g class="cls-1"><rect class="cls-2" x="1.09" y="1.09" width="100.07" height="100.08" rx="8"/><rect class="cls-3" x="1.09" y="1.09" width="100.07" height="100.08" rx="8"/><path class="cls-4" d="M20.21,23.39H81a4,4,0,0,1,4,4L86.1,38.09c0,2.23-2.87,1-5.09,1H20.21c-1.95,0-3.5,1.73-3.87-.11-.06-.26-.16-3.64-.16-3.92V27.42A4,4,0,0,1,20.21,23.39Z"/><path class="cls-5" d="M20.21,23.39H81a4,4,0,0,1,4,4L86.1,38.09c0,2.23-2.87,1-5.09,1H20.21c-1.95,0-3.5,1.73-3.87-.11-.06-.26-.16-3.64-.16-3.92V27.42A4,4,0,0,1,20.21,23.39Z"/><rect class="cls-6" x="17.63" y="41.43" width="66.99" height="45.45"/><rect class="cls-7" x="17.63" y="41.43" width="66.99" height="45.45"/><path class="cls-8" d="M15.13,40.63h72m-12-27v18m-48-18v18m54,57h-60a6,6,0,0,1-6-6v-54a6,6,0,0,1,6-6h60a6,6,0,0,1,6,6v54A6,6,0,0,1,81.13,88.63Z"/><path class="cls-9" d="M72.13,61.63h6v6h-6Zm-24,12h6v6h-6Zm-24,0h6v6h-6Zm12,0h6v6h-6Zm24-12h6v6h-6Zm-12,0h6v6h-6Zm-24,0h6v6h-6Zm12,0h6v6h-6Zm36-12h6v6h-6Zm-12,0h6v6h-6Zm-12,0h6v6h-6Zm-12,0h6v6h-6Z"/></g><rect class="cls-10" x="24.82" y="62.31" width="3.46" height="3.92"/><rect class="cls-10" x="37.32" y="62.31" width="2.87" height="3.29"/><rect class="cls-10" x="49.48" y="62.52" width="3.23" height="3.23"/><rect class="cls-10" x="61.07" y="62.73" width="3.46" height="2.87"/><rect class="cls-10" x="73.4" y="62.73" width="2.87" height="2.87"/></g></g></svg>