<svg xmlns="http://www.w3.org/2000/svg" viewBox="0 0 286.51 246.15"><defs><style>.cls-1{isolation:isolate;}.cls-2{fill:#fff;}.cls-3,.cls-4,.cls-6{fill:none;stroke-miterlimit:10;stroke-width:7.3px;}.cls-3{stroke:#fff;}.cls-4{stroke:#000;}.cls-5{fill:#b3dee5;}.cls-6{stroke:#b3dee5;}</style></defs><g id="Layer_2" data-name="Layer 2"><g id="Layer_1-2" data-name="Layer 1"><g class="cls-1"><path class="cls-2" d="M31.71,73.53H253.23A24.75,24.75,0,0,1,278,98.25V214.57a24.75,24.75,0,0,1-24.78,24.72H31.71A24.76,24.76,0,0,1,6.93,214.57V98.25A24.76,24.76,0,0,1,31.71,73.53Z"/><path class="cls-3" d="M31.71,73.53H253.23A24.75,24.75,0,0,1,278,98.25V214.57a24.75,24.75,0,0,1-24.78,24.72H31.71A24.76,24.76,0,0,1,6.93,214.57V98.25A24.76,24.76,0,0,1,31.71,73.53Z"/><rect class="cls-2" x="6.84" y="71.47" width="270.89" height="37.29"/><rect class="cls-3" x="6.84" y="71.47" width="270.89" height="37.29"/><line class="cls-4" x1="39.63" y1="0.05" x2="39.16" y2="33.62"/><path class="cls-5" d="M32.14,18.28H255.93a23.78,23.78,0,1,1,0,47.55H32.14a23.78,23.78,0,0,1,0-47.55Z"/><path class="cls-6" d="M32.14,18.28H255.93a23.78,23.78,0,1,1,0,47.55H32.14a23.78,23.78,0,0,1,0-47.55Z"/><rect class="cls-5" x="7.44" y="42.23" width="272.48" height="25.6"/><rect class="cls-6" x="7.44" y="42.23" width="272.48" height="25.6"/><line class="cls-4" x1="39.63" y1="0.05" x2="39.16" y2="33.62"/><rect class="cls-4" x="3.65" y="15.93" width="279.21" height="226.57" rx="25"/><line class="cls-4" x1="3.01" y1="70.01" x2="283.84" y2="69.43"/><line class="cls-4" x1="249.7" y1="0.18" x2="249.23" y2="33.76"/><line class="cls-4" x1="39.63" y1="0.25" x2="39.16" y2="33.82"/></g></g></g></svg>