<svg xmlns="http://www.w3.org/2000/svg" viewBox="0 0 201.32 249.72"><defs><style>.cls-1{isolation:isolate;}.cls-2{fill:#fff;}.cls-3,.cls-5,.cls-6,.cls-7{fill:none;}.cls-3{stroke:#fff;}.cls-3,.cls-5,.cls-7{stroke-miterlimit:10;}.cls-3,.cls-5{stroke-width:7.3px;}.cls-4{fill:#31525b;}.cls-5{stroke:#31525b;}.cls-6,.cls-7{stroke:#000;stroke-linecap:square;stroke-width:7.32px;}.cls-6{stroke-linejoin:round;}</style></defs><g id="Layer_2" data-name="Layer 2"><g id="Layer_1-2" data-name="Layer 1"><g class="cls-1"><rect class="cls-2" x="8.49" y="21.69" width="184.46" height="219.28" rx="8"/><rect class="cls-3" x="8.49" y="21.69" width="184.46" height="219.28" rx="8"/><rect class="cls-4" x="62.7" y="5.37" width="75.07" height="29.58" rx="8"/><rect class="cls-5" x="62.7" y="5.37" width="75.07" height="29.58" rx="8"/><path class="cls-6" d="M66.43,3.66h68.46a5.75,5.75,0,0,1,5.71,5.77V26.75a11.48,11.48,0,0,1-11.41,11.54H72.13A11.48,11.48,0,0,1,60.72,26.75V9.43A5.75,5.75,0,0,1,66.43,3.66Z"/><path class="cls-7" d="M140.6,15.2h45.65a11.52,11.52,0,0,1,11.41,11.55V234.52a11.51,11.51,0,0,1-11.41,11.54H15.07A11.51,11.51,0,0,1,3.66,234.52V26.75A11.52,11.52,0,0,1,15.07,15.2H60.72"/></g></g></g></svg>